<svg width="231" height="223" viewBox="0 0 231 223" fill="none" xmlns="http://www.w3.org/2000/svg">
	<g id="ellipse-home 1">
		<path d="M185.764 64.0454C209.368 94.1985 180.849 155.947 150.696 179.551C120.543 203.155 76.9639 197.846 53.3598 167.693C29.7556 137.54 35.0646 93.961 65.2177 70.3569C95.3707 46.7527 162.16 33.8924 185.764 64.0454Z" fill="#007acc" fill-opacity="0.4">
			<animateTransform attributeName="transform" type="rotate" values="0 115 120;360 115 120" dur="30s" repeatCount="indefinite" /></path>
		<path d="M77.7477 43.0589C110.91 23.9122 168.054 60.8018 187.2 93.9645C206.347 127.127 194.984 169.532 161.821 188.679C128.659 207.825 86.2536 196.463 67.1071 163.301C47.9606 130.138 44.585 62.2054 77.7477 43.0589Z" fill="#007acc" fill-opacity="0.4">
			<animateTransform attributeName="transform" type="rotate" values="0 115 120;360 115 120" dur="50s" repeatCount="indefinite" /></path>
		<path d="M35.9742 109.22C39.0027 71.0466 101.787 44.8873 139.96 47.9158C178.134 50.9443 206.624 84.3448 203.595 122.518C200.566 160.691 167.166 189.182 128.993 186.153C90.8199 183.125 32.9457 147.393 35.9742 109.22Z" fill="#007acc" fill-opacity="0.4">
			<animateTransform attributeName="transform" type="rotate" values="0 115 120;360 115 120" dur="40s" repeatCount="indefinite" />
		</path>
		<path d="M135.237 67.13C157.436 74.1681 164.309 114.957 157.271 137.156C150.233 159.355 126.531 171.646 104.332 164.608C82.1333 157.569 69.843 133.868 76.8811 111.669C83.9192 89.47 113.038 60.092 135.237 67.13Z" fill="white"/>
		<g id="Clip path group">
			<mask id="mask0_1_2" style="mask-type:luminance" maskUnits="userSpaceOnUse" x="105" y="108" width="26" height="23">
				<g id="clip0_4178_2167">
					<path d="M130.635 108.423H105.236V131H130.635V108.423Z" fill="white"/>
				</g>
			</mask>
			<g mask="url(#mask0_1_2)">
				<g id="Group">
					<path id="Vector_6" d="M103.633 111.039V112.682H108.704V127.599H112.302V112.682H117.374V111.069C117.374 110.162 117.374 109.426 117.334 109.406C117.334 109.376 114.243 109.366 110.489 109.366L103.662 109.396V111.049L103.633 111.039ZM126.423 109.356C127.418 109.598 128.179 110.061 128.861 110.797C129.222 111.2 129.759 111.906 129.798 112.087C129.798 112.148 128.111 113.327 127.087 113.982C127.048 114.012 126.892 113.841 126.735 113.579C126.228 112.833 125.712 112.51 124.902 112.45C123.732 112.369 122.952 113.004 122.952 114.063C122.952 114.385 123.01 114.567 123.127 114.829C123.391 115.383 123.878 115.716 125.39 116.401C128.179 117.641 129.388 118.457 130.119 119.626C130.948 120.937 131.134 122.993 130.578 124.535C129.954 126.218 128.432 127.357 126.258 127.73C125.575 127.851 124.015 127.831 123.283 127.7C121.723 127.397 120.231 126.591 119.314 125.553C118.953 125.15 118.261 124.071 118.3 124.001L118.671 123.759L120.133 122.882L121.235 122.217L121.489 122.57C121.811 123.094 122.532 123.799 122.952 124.041C124.219 124.716 125.916 124.626 126.755 123.839C127.116 123.497 127.272 123.134 127.272 122.63C127.272 122.166 127.204 121.955 126.979 121.602C126.667 121.158 126.043 120.796 124.288 119.989C122.269 119.102 121.411 118.538 120.611 117.671C120.153 117.147 119.734 116.33 119.538 115.655C119.392 115.071 119.343 113.639 119.48 113.065C119.899 111.049 121.372 109.638 123.478 109.235C124.161 109.094 125.77 109.154 126.443 109.336L126.423 109.356Z" fill="black"/>
				</g>
			</g>
		</g>
	</g>
</svg>
