<svg width="231" height="223" viewBox="-11 15 261 203" fill="none" xmlns="http://www.w3.org/2000/svg">
<path d="M197.889 62.8825C224.559 96.9516 192.336 166.719 158.267 193.389C124.198 220.058 74.9592 214.06 48.2896 179.991C21.62 145.922 27.6184 96.6832 61.6875 70.0136C95.7565 43.344 171.22 28.8135 197.889 62.8825Z" fill="#007acc" fill-opacity="0.4">
	<animateTransform attributeName="transform" type="rotate" values="0 115 120;360 115 120" dur="30s" repeatCount="indefinite" />
</path>
<path d="M75.8449 39.1704C113.315 17.5372 177.879 59.2176 199.512 96.6872C221.145 134.157 208.307 182.069 170.838 203.702C133.368 225.335 85.4556 212.497 63.8224 175.028C42.1893 137.558 38.3753 60.8035 75.8449 39.1704Z" fill="#007acc" fill-opacity="0.4">
	<animateTransform attributeName="transform" type="rotate" values="0 130 130;360 130 130" dur="50s" repeatCount="indefinite" />
</path>
<path d="M28.6462 113.924C32.068 70.7929 103.006 41.2363 146.137 44.6581C189.268 48.0799 221.458 85.8181 218.036 128.949C214.614 172.08 176.876 204.27 133.745 200.848C90.6147 197.427 25.2244 157.054 28.6462 113.924Z" fill="#007acc" fill-opacity="0.4">
	<animateTransform attributeName="transform" type="rotate" values="0 120 115;360 120 115" dur="40s" repeatCount="indefinite" />
</path>
<path d="M140.8 66.3677C165.882 74.3198 173.648 120.406 165.696 145.488C157.744 170.57 130.964 184.457 105.882 176.505C80.8 168.552 66.9135 141.773 74.8656 116.691C82.8178 91.6089 115.718 58.4156 140.8 66.3677Z" fill="white"/>
<g clip-path="url(#clip0_4199_94)">
<path d="M112.327 113.845L108.927 112.144C108.509 111.975 107.998 112.097 107.791 112.534C107.579 112.965 107.745 113.491 108.17 113.703L111.57 115.404C111.69 115.465 111.817 115.499 111.95 115.499C112.342 115.499 112.687 115.219 112.78 114.823C112.869 114.433 112.683 114.023 112.327 113.845ZM111.95 127.701C111.817 127.701 111.691 127.735 111.571 127.797L108.171 129.497C107.746 129.709 107.581 130.236 107.786 130.666C107.999 131.054 108.51 131.274 108.929 131.062L112.329 129.362C112.68 129.177 112.866 128.767 112.78 128.427C112.688 128.029 112.343 127.701 111.95 127.701ZM134.05 115.499C134.183 115.499 134.309 115.465 134.429 115.404L137.829 113.703C138.254 113.491 138.419 112.965 138.207 112.534C138.001 112.146 137.49 111.926 137.071 112.145L133.671 113.845C133.319 114.023 133.134 114.433 133.22 114.823C133.312 115.219 133.657 115.499 134.05 115.499ZM111.1 121.576C111.1 121.138 110.722 120.701 110.25 120.701H106.85C106.379 120.701 106 121.09 106 121.527C106 121.963 106.379 122.451 106.85 122.451H110.25C110.722 122.451 111.1 122.112 111.1 121.576ZM139.15 120.701H135.75C135.279 120.701 134.9 121.09 134.9 121.527C134.9 121.963 135.279 122.352 135.75 122.352H139.15C139.621 122.352 140 121.963 140 121.527C140 121.09 139.623 120.701 139.15 120.701ZM137.827 129.593L134.427 127.892C134.009 127.723 133.497 127.851 133.285 128.282C133.079 128.713 133.245 129.239 133.67 129.458L137.07 131.158C137.489 131.37 138 131.199 138.212 130.762C138.422 130.331 138.252 129.806 137.827 129.593ZM122.973 112.001C117.831 112.016 113.65 116.369 113.65 121.702C113.65 124.048 114.472 126.314 115.964 128.078C116.672 128.915 117.868 130.79 118.287 132.236C118.344 132.711 118.757 133.035 119.224 132.985C119.686 132.932 120.02 132.495 119.973 132.02L119.941 131.839C119.393 129.926 118.029 127.855 117.246 126.93C116.025 125.481 115.35 123.627 115.35 121.702C115.35 117.259 118.7 113.766 122.973 113.756H123C125.026 113.756 126.934 114.569 128.376 116.049C129.843 117.551 130.65 119.558 130.65 121.702C130.65 123.626 129.977 125.483 128.755 126.931C127.971 127.857 126.607 129.928 126.059 131.84L126.026 132.023C125.97 132.502 126.288 132.985 126.752 133.045C126.793 133.05 126.833 133.053 126.873 133.053C127.287 133.053 127.636 132.773 127.689 132.336C128.132 130.791 129.329 128.916 130.037 128.079C131.527 126.312 132.35 124.048 132.35 121.702C132.35 119.092 131.365 116.644 129.576 114.806C127.808 112.989 125.423 111.936 122.973 112.001ZM126.352 134.701H119.6C119.13 134.701 118.749 135.093 118.75 135.577L118.754 136.799C118.754 137.142 118.854 137.481 119.039 137.766L119.947 139.171C120.224 139.601 120.861 139.952 121.362 139.952H124.641C125.142 139.952 125.779 139.6 126.056 139.172L126.964 137.767C127.121 137.524 127.248 137.091 127.249 136.8L127.247 135.578C127.202 135.144 126.868 134.701 126.352 134.701ZM125.545 136.85L124.689 138.187C124.664 138.211 124.599 138.247 124.643 138.248L121.44 138.255C121.417 138.249 121.379 138.239 121.364 138.239C121.357 138.239 121.357 138.227 121.364 138.239L120.456 136.846L120.455 136.498H125.552L125.552 136.781C125.545 136.806 125.534 136.85 125.545 136.85ZM123.85 116.376C123.85 115.893 123.47 115.501 123 115.501C119.72 115.501 117.05 118.249 117.05 121.577C117.05 122.061 117.43 122.452 117.9 122.452C118.37 122.452 118.75 122.06 118.75 121.577C118.75 119.165 120.656 117.251 123 117.251C123.468 117.251 123.85 116.86 123.85 116.376Z" fill="black"/>
</g>
<defs>
<clipPath id="clip0_4199_94">
<rect width="34" height="28" fill="white" transform="translate(106 112)"/>
</clipPath>
</defs>
</svg>
