<svg width="231" height="223" viewBox="-11 15 261 203" fill="none" xmlns="http://www.w3.org/2000/svg">
<path d="M197.889 62.6872C224.559 96.7563 192.336 166.524 158.267 193.193C124.198 219.863 74.9592 213.864 48.2896 179.795C21.62 145.726 27.6184 96.4879 61.6875 69.8183C95.7565 43.1487 171.22 28.6182 197.889 62.6872Z" fill="#007acc" fill-opacity="0.4">
	<animateTransform attributeName="transform" type="rotate" values="0 115 120;360 115 120" dur="30s" repeatCount="indefinite" />
</path>
<path d="M75.8449 39.1704C113.315 17.5372 177.879 59.2176 199.512 96.6872C221.145 134.157 208.307 182.069 170.838 203.702C133.368 225.335 85.4556 212.497 63.8224 175.028C42.1893 137.558 38.3753 60.8035 75.8449 39.1704Z" fill="#007acc" fill-opacity="0.4">
	<animateTransform attributeName="transform" type="rotate" values="0 130 130;360 130 130" dur="50s" repeatCount="indefinite" />
</path>
<path d="M28.6462 113.924C32.068 70.7929 103.006 41.2363 146.137 44.6581C189.268 48.0799 221.458 85.8181 218.036 128.949C214.614 172.08 176.876 204.27 133.745 200.848C90.6147 197.427 25.2244 157.054 28.6462 113.924Z" fill="#007acc" fill-opacity="0.4">
	<animateTransform attributeName="transform" type="rotate" values="0 120 115;360 120 115" dur="40s" repeatCount="indefinite" />
</path>
<path d="M140.8 66.3677C165.882 74.3198 173.648 120.406 165.696 145.488C157.744 170.57 130.964 184.457 105.882 176.505C80.8 168.552 66.9135 141.773 74.8656 116.691C82.8178 91.6089 115.718 58.4156 140.8 66.3677Z" fill="white"/>
<g clip-path="url(#clip0_4199_95)">
<path d="M133.451 115H112.451C110.523 115 108.951 116.572 108.951 118.451V134.152C108.951 136.079 110.523 137.602 112.451 137.602H117.701V142.196C117.701 142.734 118.304 143.046 118.746 142.726L125.577 137.602H133.452C135.38 137.602 136.952 136.03 136.952 134.152V118.451C136.951 116.572 135.425 115 133.451 115ZM135.25 134.25C135.25 135.212 134.462 136 133.5 136H125.619C125.241 136 124.872 136.123 124.569 136.35L119.5 140.156V136.875C119.5 136.391 119.108 136 118.625 136H112.5C111.537 136 110.75 135.212 110.75 134.25V118.5C110.75 117.537 111.537 116.75 112.5 116.75H133.5C134.462 116.75 135.25 117.537 135.25 118.5V134.25ZM126.494 125.062C127.219 125.062 127.807 124.474 127.807 123.75C127.807 123.025 127.219 122.437 126.494 122.437C125.77 122.437 125.182 123.025 125.182 123.75C125.182 124.474 125.773 125.062 126.494 125.062ZM127.14 128.852C126.112 130.061 124.602 130.75 122.994 130.75C121.387 130.75 119.877 130.061 118.855 128.858C118.537 128.497 117.985 128.453 117.624 128.759C117.248 129.074 117.214 129.62 117.522 129.996C118.882 131.582 120.882 132.498 123.001 132.498C125.121 132.498 127.113 131.582 128.481 129.989C128.795 129.62 128.748 129.066 128.378 128.752C128.015 128.442 127.462 128.486 127.14 128.852ZM119.494 125.062C120.219 125.062 120.807 124.474 120.807 123.75C120.807 123.025 120.219 122.437 119.494 122.437C118.77 122.437 118.182 123.025 118.182 123.75C118.182 124.474 118.773 125.062 119.494 125.062Z" fill="black"/>
</g>
<defs>
<clipPath id="clip0_4199_95">
<rect width="28" height="28" fill="white" transform="translate(109 115)"/>
</clipPath>
</defs>
</svg>
